<svg id="flames" xmlns="http://www.w3.org/2000/svg" viewBox="0 0 268.69 546.91"><defs><style>.cls-1{fill:#f15a29;stroke:#e73225;stroke-width:1.97px;}.cls-1,.cls-2,.cls-3,.cls-4,.cls-6,.cls-7{stroke-miterlimit:10;}.cls-2{fill:#92278f;stroke:#662d91;}.cls-2,.cls-3{stroke-width:4px;}.cls-3,.cls-6{fill:#a7a9ac;}.cls-3,.cls-4,.cls-6,.cls-7{stroke:#6d6e71;}.cls-4{fill:none;stroke-width:7px;}.cls-5{fill:#d1d3d4;}.cls-6{stroke-width:2.89px;}.cls-7{fill:#fff;stroke-width:3px;}</style></defs><title>rocket</title><path class="cls-1" d="M345.35,614.91a92.57,92.57,0,0,1-4.4-23.62c-0.42-6.33-.66-12.87-2.31-18.82-3.18-11.41-11-15.09-18.75-16.48-15.65-2.81-43.52.37-46.85,29.34a4,4,0,0,0,0,.89c-3.5,9.93-6.66,20.75-5.53,32.07,1.36,13.51,10.66,24.2,9.32,38.38-0.25,2.53,6.76-10.85,6.88-17.63a53.59,53.59,0,0,1,1.41,8.72c0.6,7.86-.84,15.55-1,23.38-0.22,12,13.8,28.47,13.72,26.54-0.43-9.17-2-19.77,1.37-28.07,1.39-3.41,3.06-6.54,4.11-10a63.72,63.72,0,0,1,2.17,19.51c-0.38,9.13-3,16.41-5.94,24.22-5.28,13.88-2.75,27.89,4.23,39.42,0.89,1.47,2.28-12.53,3.63-17.66,1.16-4.4,3.22-8.15,4.92-12.12a106.59,106.59,0,0,0,7.35-25c1.49-9.39.74-18.23,0.56-27.73a63.44,63.44,0,0,1,4.85-25c3,7.4,1.84,29.19,3.61,27.91,6.12-4.43,9.64-13.41,9.3-23.34-0.21-6-1.52-11.68-2.47-17.45-0.37-2.23-1.07-5.62-.42-7.87,0.9-3.14,3.3-3.45,5.08-1.3C341.15,614.26,346.29,617.71,345.35,614.91Z" transform="translate(-171.66 -196.91)"/><path class="cls-2" d="M224.58,466c-14.66,13.16-41.66,41.52-49,84-7.6,44,9.45,82.53,14,82,5.43-.63-7.93-56.65,23-85a59,59,0,0,1,24-13" transform="translate(-171.66 -196.91)"/><path class="cls-2" d="M387.42,466c14.66,13.16,41.66,41.52,49,84,7.6,44-9.45,82.53-14,82-5.43-.63,7.93-56.65-23-85a59,59,0,0,0-24-13" transform="translate(-171.66 -196.91)"/><path class="cls-3" d="M363.9,574.19C379.38,534.59,389,479.25,389,418c0-120.4-83-218-83-218s-83,97.6-83,218c0,61.25,9.62,116.59,25.1,156.19H363.9Z" transform="translate(-171.66 -196.91)"/><line class="cls-4" x1="81.73" y1="89.72" x2="187.58" y2="89.72"/><line class="cls-4" x1="69.84" y1="358.25" x2="199.68" y2="358.25"/><path class="cls-5" d="M305,209.67c-4.67,7.23-11.7,17.83-20.5,30.83A199.73,199.73,0,0,0,264,279h11.38" transform="translate(-171.66 -196.91)"/><path class="cls-5" d="M258,294.5c-9.16,28.48-24,71.29-24.5,123C233,477.27,253,526,253,526s-13.66-45.76-7.67-117.83c3.81-45.78,15.56-88.53,22.53-113.17" transform="translate(-171.66 -196.91)"/><circle class="cls-6" cx="134.76" cy="163.14" r="38.56"/><circle class="cls-7" cx="134.76" cy="163.14" r="31.03"/><rect class="cls-2" x="125.34" y="269.09" width="18" height="166.01" rx="9" ry="9"/></svg>